HIERARCHY
ROOT Hips
{
  OFFSET 0 89.5177 0.535
  CHANNELS 6 Xposition Yposition Zposition Zrotation Xrotation Yrotation
  JOINT Spine
  {
    OFFSET 12.0259 -0.162855 1.69034e-005
    CHANNELS 3 Zrotation Xrotation Yrotation
    JOINT Spine1
    {
      OFFSET 15.3169 -0.0121922 0
      CHANNELS 3 Zrotation Xrotation Yrotation
      JOINT Spine2
      {
        OFFSET 15.3176 -0.0121908 0
        CHANNELS 3 Zrotation Xrotation Yrotation
        JOINT Neck
        {
          OFFSET 19.9142 1.56338 0
          CHANNELS 3 Zrotation Xrotation Yrotation
          JOINT Head
          {
            OFFSET 6.92651 0 0
            CHANNELS 3 Zrotation Xrotation Yrotation
            End Site
            {
              OFFSET 20.7666 0 0
            }
          }
          JOINT LeftShoulder
          {
            OFFSET -6.20654 0.708824 7.28219
            CHANNELS 3 Zrotation Xrotation Yrotation
            JOINT LeftArm
            {
              OFFSET 14.108 0 -1.52588e-005
              CHANNELS 3 Zrotation Xrotation Yrotation
              JOINT LeftForeArm
              {
                OFFSET 28.5802 0 0
                CHANNELS 3 Zrotation Xrotation Yrotation
                JOINT LeftHand
                {
                  OFFSET 27.092 0 0
                  CHANNELS 3 Zrotation Xrotation Yrotation
                  End Site
                  {
                    OFFSET 9.55928 -0.186424 0.145352
                  }
                }
              }
            }
          }
          JOINT RightShoulder
          {
            OFFSET -6.20654 0.708866 -7.28218
            CHANNELS 3 Zrotation Xrotation Yrotation
            JOINT RightArm
            {
              OFFSET 14.108 0 1.52588e-005
              CHANNELS 3 Zrotation Xrotation Yrotation
              JOINT RightForeArm
              {
                OFFSET 28.5802 0 0
                CHANNELS 3 Zrotation Xrotation Yrotation
                JOINT RightHand
                {
                  OFFSET 27.092 0 0
                  CHANNELS 3 Zrotation Xrotation Yrotation
                  End Site
                  {
                    OFFSET 9.55929 -0.186417 -0.145354
                  }
                }
              }
            }
          }
        }
      }
    }
  }
  JOINT LeftUpLeg
  {
    OFFSET 0.005 -0.535 8.837
    CHANNELS 3 Zrotation Xrotation Yrotation
    JOINT LeftLeg
    {
      OFFSET 39.9035 0 0
      CHANNELS 3 Zrotation Xrotation Yrotation
      JOINT LeftFoot
      {
        OFFSET 39.6689 0 0
        CHANNELS 3 Zrotation Xrotation Yrotation
        JOINT LeftToe
        {
          OFFSET 10.1624 13.6296 0
          CHANNELS 3 Zrotation Xrotation Yrotation
          End Site
          {
            OFFSET 8.38147 0 0
          }
        }
      }
    }
  }
  JOINT RightUpLeg
  {
    OFFSET 0.005 -0.535 -8.837
    CHANNELS 3 Zrotation Xrotation Yrotation
    JOINT RightLeg
    {
      OFFSET 39.9035 0 0
      CHANNELS 3 Zrotation Xrotation Yrotation
      JOINT RightFoot
      {
        OFFSET 39.6689 0 0
        CHANNELS 3 Zrotation Xrotation Yrotation
        JOINT RightToe
        {
          OFFSET 10.1624 13.6296 0
          CHANNELS 3 Zrotation Xrotation Yrotation
          End Site
          {
            OFFSET 8.38147 0 0
          }
        }
      }
    }
  }
}
MOTION
Frames:	15
Frame Time:	0.0333333
405.749 89.4633 110.638 101.689 -85.8172 11.4435 -0.000330986 -0.757637 0.238437 0.00249417 -1.5148 0.477102 0.00249406 -1.5148 0.477093 -8.30738e-012 -9.0191e-006 -5.27751e-005 10.0927 2.0126 -3.76456 -179.374 -8.06652 -85.5489 58.7293 -79.5689 56.1341 -2.72147 -1.59028e-015 -0 -46.1857 -15.52 -36.4433 179.951 2.72335 91.0269 54.1818 55.8132 -46.1267 -21.1257 0 3.18055e-015 -38.8626 30.428 42.0505 -4.08705 3.62222 179.305 -17.8908 1.59028e-015 -3.97569e-016 19.8128 12.8058 -6.9829 90 -2.78299e-015 -7.95139e-016 -1.45733 -6.25176 -176.518 -12.4794 0 -7.45443e-016 13.6543 -5.63402 3.79899 90 2.23633e-016 -1.59028e-015 
405.864 89.3742 110.085 97.8853 -86.0003 7.6698 0.0188721 -0.762802 0.286796 0.0415706 -1.52503 0.57409 0.0415705 -1.52503 0.574081 -8.30728e-012 -9.0191e-006 -5.27751e-005 10.0256 2.0833 -3.60912 -179.354 -8.09161 -85.4187 60.1495 -79.4507 57.4606 -2.56226 2.38542e-015 1.59028e-015 -45.9033 -15.4441 -36.1435 179.958 2.72433 90.88 53.68 55.5847 -45.9841 -21.1353 -3.18055e-015 -1.59028e-015 -38.4561 30.4762 41.6637 -3.40051 3.32503 179.329 -17.8861 1.59028e-015 3.97569e-016 19.921 12.3996 -6.86105 90 -8.94531e-016 -7.95139e-016 -0.8572 -5.8222 -176.39 -12.6838 0 -1.54058e-015 14.2728 -5.42269 3.41812 90 -2.16178e-015 -0 
405.976 89.2491 109.582 94.6426 -85.9255 4.31571 0.0406135 -0.794762 0.356852 0.0861916 -1.58879 0.71454 0.0861915 -1.58879 0.71453 -8.30748e-012 -9.0191e-006 -5.27751e-005 9.88639 1.97269 -3.45713 -179.35 -7.98719 -85.3335 60.1574 -79.149 57.4026 -2.5609 1.59028e-015 -1.59028e-015 -45.6134 -15.5041 -35.9998 179.966 2.7461 90.7046 53.304 55.3142 -45.8676 -21.0713 -1.27222e-014 -0 -38.0236 30.3355 41.0928 -3.35615 3.09518 179.578 -18.773 -7.95139e-016 -1.19271e-015 20.1881 12.1734 -7.2656 90 6.95746e-016 1.59028e-015 -0.403237 -5.72454 -176.144 -12.9808 1.98785e-016 -7.45443e-016 14.7506 -5.35349 3.1151 90 -4.72114e-016 -7.95139e-016 
406.05 89.112 109.101 91.1315 -85.4845 0.714131 0.105675 -0.865288 0.431853 0.21791 -1.72928 0.865619 0.21791 -1.72928 0.865609 -8.30728e-012 -9.0191e-006 -5.27751e-005 9.3374 1.69333 -3.30612 -179.351 -7.86844 -85.2715 59.8026 -78.796 57.1954 -2.57267 7.95139e-016 -6.36111e-015 -45.3694 -15.546 -35.9418 179.971 2.8284 90.5867 53.1881 55.2022 -45.8451 -20.8039 3.18055e-015 -0 -37.6728 30.2765 40.6656 -3.7654 2.72599 179.892 -20.0917 0 -0 19.2331 11.6787 -8.94198 90 -1.54058e-015 7.95139e-016 0.0622176 -6.03878 -175.945 -13.445 -1.98785e-016 -9.93923e-016 15.6569 -5.35416 2.68255 90 2.06239e-015 -0 
406.046 89.0291 108.626 87.9796 -84.8144 -2.41917 0.209819 -0.944478 0.494806 0.427878 -1.88663 0.993439 0.427878 -1.88663 0.99343 -8.30788e-012 -9.0191e-006 -5.27751e-005 8.54185 1.24648 -3.11625 -179.361 -7.69609 -85.2408 59.9921 -78.4563 57.6593 -2.57652 0 -0 -45.1781 -15.4441 -35.6631 179.978 2.85953 90.4363 53.4295 55.3144 -45.8679 -20.336 6.36111e-015 2.38542e-015 -37.8563 30.2424 40.8176 -4.47794 3.29804 -179.73 -21.4541 0 -0 16.5167 11.0569 -12.0299 90 3.85145e-015 3.97569e-016 0.693279 -6.75982 -175.925 -13.6744 1.98785e-016 -9.44227e-016 16.4982 -5.54648 2.5336 90 -7.45443e-017 -7.95139e-016 
406.053 88.981 108.157 88.4363 -84.2045 -1.95358 0.271267 -1.00456 0.556368 0.552408 -2.00596 1.11791 0.552408 -2.00596 1.1179 -8.30728e-012 -9.0191e-006 -5.27751e-005 7.75634 0.913819 -2.7684 -179.37 -7.55381 -85.2205 58.9969 -77.969 56.9679 -2.63832 3.97569e-015 -1.59028e-015 -45.1378 -15.3789 -35.5626 179.987 2.87126 90.261 53.8474 55.4239 -46.0471 -19.8387 -6.36111e-015 -0 -38.3993 30.0815 41.1924 -8.18439 5.00367 -179.699 -27.9107 3.18055e-015 1.19271e-015 16.0849 10.5877 -8.41559 90 3.55949e-015 9.93923e-017 1.26047 -7.09289 -175.847 -13.3615 -1.98785e-016 -7.45443e-016 16.934 -5.41099 2.40087 90 1.76421e-015 2.38542e-015 
406.037 88.945 107.616 89.7837 -84.0435 -0.444584 0.314535 -0.988835 0.561145 0.638886 -1.97406 1.12813 0.638886 -1.97406 1.12812 -8.30708e-012 -9.0191e-006 -5.27751e-005 7.12318 0.693142 -2.31903 -179.377 -7.44811 -85.2054 57.3655 -77.7348 55.4842 -2.63216 0 -1.59028e-015 -44.8881 -15.4942 -35.5333 179.997 2.81562 90.055 54.2301 55.4735 -46.268 -19.3054 0 -1.59028e-015 -38.5044 30.0214 41.2174 -11.6035 6.59235 -179.2 -31.6662 0 -1.59028e-015 15.316 10.6652 -9.17006 90 5.46658e-016 -0 1.57947 -7.29013 -175.999 -13.3182 1.98785e-016 -7.45443e-016 17.5477 -5.54063 2.44407 90 -2.98177e-016 1.59028e-015 
405.984 88.9234 107.004 92.176 -84.3381 2.19957 0.344761 -0.936658 0.528023 0.698282 -1.86961 1.06205 0.698282 -1.86961 1.06204 -8.30669e-012 -9.0191e-006 -5.27751e-005 6.55454 0.641197 -1.83283 -179.366 -7.53202 -85.1762 57.9375 -78.0907 55.9399 -2.4677 -7.95139e-016 4.77083e-015 -45.1237 -15.3425 -35.5951 -179.998 2.67638 89.9489 54.4526 55.3412 -46.686 -18.8948 3.18055e-015 -1.59028e-015 -38.3881 29.9475 41.1161 -14.1809 7.78554 -178.617 -31.6435 0 -7.95139e-016 14.0897 11.2255 -12.1703 90 -5.76476e-015 7.95139e-016 1.79539 -7.16604 -176.287 -13.2284 -1.98785e-016 4.47266e-016 18.0578 -5.71265 2.56315 90 6.4605e-016 -0 
405.859 88.9033 106.324 95.9843 -84.7863 6.34349 0.370116 -0.862269 0.46395 0.747332 -1.72102 0.933786 0.747332 -1.72102 0.933776 -8.30788e-012 -9.0191e-006 -5.27751e-005 6.03434 0.496652 -1.76287 -179.367 -7.6385 -85.2495 60.7071 -78.5369 58.5 -2.50817 0 1.59028e-015 -45.2421 -15.1954 -35.4972 -179.991 2.55607 89.7873 54.297 55.031 -46.8149 -18.8005 -3.18055e-015 -0 -38.1275 29.8604 40.7831 -15.6979 8.0087 -178.598 -28.3472 -3.18055e-015 -1.98785e-015 12.644 11.5276 -13.3979 90 -2.34659e-015 -3.97569e-016 1.9473 -6.78908 -176.703 -13.0667 1.98785e-016 -9.93923e-017 18.3658 -5.79861 2.73529 90 8.94531e-016 -0 
405.673 88.8443 105.544 100.363 -85.2962 11.0475 0.406042 -0.778684 0.406863 0.81772 -1.55397 0.819514 0.817719 -1.55397 0.819504 -8.30708e-012 -9.0191e-006 -5.27751e-005 5.28745 0.577532 -2.07654 -179.371 -7.71865 -85.3249 63.1113 -78.8629 60.6437 -2.53902 -2.38542e-015 -0 -45.3317 -15.2653 -35.5731 -179.986 2.42368 89.6683 53.9986 54.8527 -46.7019 -18.8848 3.18055e-015 7.95139e-016 -37.8041 29.6061 40.3393 -16.9265 7.07965 -178.944 -24.0982 0 -3.97569e-016 10.2965 10.9858 -11.9234 90 2.1183e-015 -2.98177e-016 2.17289 -6.12003 -177.117 -12.8439 0 -8.94531e-016 18.3881 -5.64836 2.81752 90 6.95746e-016 -7.95139e-016 
405.437 88.7492 104.628 106.757 -85.7973 17.6713 0.432876 -0.686006 0.37196 0.870292 -1.3687 0.749339 0.870292 -1.3687 0.749329 -8.30748e-012 -9.0191e-006 -5.27751e-005 4.59015 0.40755 -2.92415 -179.371 -7.8086 -85.3814 65.5996 -79.2377 62.9924 -2.40255 -1.59028e-015 -0 -45.5421 -15.2373 -35.8188 -179.987 2.29138 89.6736 53.7022 54.7027 -46.5072 -19.1751 -9.54166e-015 -3.18055e-015 -37.759 29.5067 40.2388 -18.7396 5.77786 -179.262 -20.8589 1.59028e-015 6.95746e-016 7.84821 10.1663 -8.7285 90 -1.27968e-015 -0 2.49237 -5.34609 -177.471 -12.4577 0 -1.49089e-016 18.1721 -5.43702 2.99156 90 1.21756e-015 -7.95139e-016 
405.132 88.6237 103.465 111.322 -86.2408 22.4528 0.470811 -0.600228 0.323276 0.94508 -1.1973 0.651691 0.94508 -1.1973 0.651681 -8.30907e-012 -9.0191e-006 -5.27751e-005 4.08291 0.287082 -3.86077 -179.375 -7.87519 -85.4453 66.9476 -79.5063 64.4054 -2.4045 -7.95139e-016 1.59028e-015 -45.4932 -15.326 -35.9037 -179.988 2.20983 89.6821 53.6729 54.7639 -46.4852 -19.6221 3.18055e-015 7.95139e-016 -37.7726 29.4586 40.2364 -19.7648 4.30266 -179.408 -17.1424 0 2.23633e-016 5.12115 10.4369 -8.18148 90 -1.39149e-015 -7.95139e-016 3.33839 -4.81061 -177.87 -11.8013 -1.98785e-016 1.98785e-016 17.9067 -5.34269 3.35143 90 -8.32411e-016 -7.95139e-016 
404.756 88.4716 101.908 110.883 -86.761 22.1563 0.518314 -0.511609 0.25883 1.039 -1.02038 0.522472 1.039 -1.02038 0.522463 -8.30828e-012 -9.0191e-006 -5.27751e-005 4.24753 0.0312844 -4.6409 -179.393 -7.8589 -85.5702 65.8956 -79.5324 63.607 -2.58991 1.59028e-015 -0 -45.645 -15.287 -36.0075 -179.993 2.12315 89.7994 53.8402 54.6633 -46.646 -20.107 3.18055e-015 -1.59028e-015 -37.6968 29.3207 40.074 -20.9616 3.32593 -179.49 -16.7046 -2.38542e-015 -4.96962e-017 7.31605 12.2532 -8.52738 90 0 3.18055e-015 5.34662 -4.28033 -178.236 -10.1266 0 9.93923e-017 17.307 -5.15947 3.98275 90 9.31803e-018 1.59028e-015 
404.299 88.2413 100.028 110.797 -87.4048 22.196 0.483185 -0.393763 0.17167 0.967583 -0.78559 0.346831 0.967583 -0.785591 0.346822 -8.30708e-012 -9.0191e-006 -5.27751e-005 5.2573 -0.458229 -4.88559 -179.43 -7.88728 -85.8525 63.3767 -79.3193 61.6219 -2.93919 7.95139e-016 -0 -45.7469 -15.2691 -35.8878 179.998 1.95362 90.0739 54.0909 54.5833 -46.9006 -20.3117 3.18055e-015 -0 -37.588 29.2315 39.9512 -22.3675 3.80622 -179.656 -19.2659 7.95139e-016 7.95139e-016 11.6736 14.67 -8.60463 90 3.97569e-016 1.59028e-015 7.76955 -3.90255 -178.702 -8.11845 -1.98785e-016 4.96962e-016 16.7837 -5.15928 4.88232 90 1.33558e-015 3.97569e-016 
403.723 87.9856 97.9387 107.566 -88.3242 19.4838 0.406682 -0.259631 -0.00269765 0.813364 -0.518803 -0.00338725 0.813364 -0.518803 -0.00339655 -8.30748e-012 -9.0191e-006 -5.27751e-005 6.72071 -0.97466 -4.73497 -179.46 -8.09953 -86.172 61.0479 -79.1937 59.9574 -3.42091 1.59028e-015 -0 -45.6108 -15.3559 -35.8717 179.983 1.78847 90.5293 54.2611 54.6548 -47.3455 -20.3499 -6.36111e-015 -3.18055e-015 -37.3138 29.1445 39.7497 -22.2511 4.50362 179.564 -21.385 1.59028e-015 -6.21202e-018 10.8943 16.0781 -8.26687 90 -3.97569e-016 -3.18055e-015 11.7819 -3.73419 -179.504 -3.66025 0 1.98785e-016 15.8943 -5.43491 4.81396 90 5.28022e-017 3.97569e-016 
